<svg id="Layer_1" data-name="Layer 1" xmlns="http://www.w3.org/2000/svg" viewBox="0 0 3240 1080"><defs><style>.cls-1{fill:none;stroke:#000;stroke-width:10px;isolation:isolate;}.cls-2{font-size:624.03px;font-family:Raleway-SemiBold, Raleway;font-weight:600;}.cls-3{letter-spacing:-0.01em;}</style></defs><rect class="cls-1" x="157.83" y="154" width="546.83" height="707.66" rx="32.17"/><path d="M608.16,218.33H125.65A32.16,32.16,0,0,0,93.49,250.5V893.83A32.16,32.16,0,0,0,125.65,926H608.16a32.17,32.17,0,0,0,32.17-32.17V250.5A32.17,32.17,0,0,0,608.16,218.33ZM206.07,536a12.07,12.07,0,0,1,12.07-12.05H435.26A12.07,12.07,0,0,1,447.33,536v16.1a12.07,12.07,0,0,1-12.07,12H218.14a12.07,12.07,0,0,1-12.07-12ZM479.49,664.65a12.07,12.07,0,0,1-12.06,12.06H218.14a12.08,12.08,0,0,1-12.07-12.06V648.57a12.07,12.07,0,0,1,12.07-12.07H467.43a12.06,12.06,0,0,1,12.06,12.07Zm32.17-225.18a12.06,12.06,0,0,1-12.06,12.07H218.14a12.07,12.07,0,0,1-12.07-12.07V423.39a12.08,12.08,0,0,1,12.07-12.06H499.6a12.07,12.07,0,0,1,12.06,12.06Z"/><text class="cls-2" transform="translate(829.52 735.94)"><tspan class="cls-3">R</tspan><tspan x="410.61" y="0">ubeeq</tspan></text></svg>