<svg id="Layer_1" data-name="Layer 1" xmlns="http://www.w3.org/2000/svg" viewBox="0 0 1080 1080"><defs><style>.cls-1{fill:none;stroke:#000;stroke-width:10px;isolation:isolate;}</style></defs><rect class="cls-1" x="279.58" y="123.33" width="590.28" height="763.89" rx="34.72"/><path d="M765.69,192.78H244.86a34.71,34.71,0,0,0-34.72,34.72V921.94a34.72,34.72,0,0,0,34.72,34.73H765.69a34.73,34.73,0,0,0,34.73-34.73V227.5A34.72,34.72,0,0,0,765.69,192.78Zm-434,342.88a13,13,0,0,1,13-13H579.06a13,13,0,0,1,13,13V553a13,13,0,0,1-13,13H344.69a13,13,0,0,1-13-13ZM626.81,674.55a13,13,0,0,1-13,13H344.69a13,13,0,0,1-13-13V657.19a13,13,0,0,1,13-13H613.78a13,13,0,0,1,13,13Zm34.72-243.06a13,13,0,0,1-13,13H344.69a13,13,0,0,1-13-13V414.13a13,13,0,0,1,13-13H648.51a13,13,0,0,1,13,13Z"/></svg>